<svg
    viewBox="0 0 100 44"
    fill="none"
    xmlns="http://www.w3.org/2000/svg"
>
    <path
        fill-rule="evenodd"
        clip-rule="evenodd"
        d="M0 14.5713V29.4887H88.5712V14.5713H0ZM73.0247 14.8753H73.0459C76.3598 14.8851 77.8467 17.1289 77.8467 19.9547H74.6039C74.6039 19.0251 74.3673 17.4256 73.1135 17.4256C71.6434 17.4256 71.4245 19.498 71.4245 22.049C71.4245 24.8593 71.5549 26.6344 73.1979 26.6344C74.4734 26.6344 74.7539 25.594 74.8404 23.8646L77.8678 24.1264C77.8678 27.1529 76.0724 29.1847 73.0459 29.1847C68.8304 29.1847 67.6878 25.5949 67.6878 22.0279C67.6878 18.7261 68.8057 14.8887 73.0247 14.8753ZM42.5439 15.1117H45.4404V24.4937C45.4404 27.5851 43.7126 29.1425 40.6861 29.1425C37.6596 29.1425 36.126 27.4554 36.126 24.4937V15.1329H39.6052V24.6879C39.6052 25.7256 39.9494 26.6133 41.1168 26.6133C42.2842 26.6133 42.5439 25.5314 42.5439 24.4937V15.1117ZM0.776904 15.1329H4.2603V28.9018H0.776904V15.1329ZM6.05478 15.1329H6.0759H8.9724L12.9287 22.5472H12.9709V15.1329H15.7576V28.9018H12.9709L8.88372 21.2299H8.8415V28.9018H6.05478V15.1329ZM17.5521 15.1329H25.8574V17.7929H21.0355V20.5796H24.4514V23.2397H21.0355V28.8807H17.5521V15.1329ZM26.8496 15.1329H30.3288V26.4613H35.0451V28.8807H26.8496V15.1329ZM47.2349 15.1329H55.8822V17.7929H50.7183V20.5796H54.1975V23.2397H50.7183V26.0939H55.8822V28.8807H47.2349V15.1329ZM56.8786 15.1329H56.8998H59.7963L63.7526 22.5472H63.7948V15.1329H66.5604V28.9018H63.7948L59.7076 21.2299H59.6654V28.9018H56.8786L56.8786 15.1329ZM79.1428 15.1329H87.7901V17.7929H82.6051V20.5796H86.0843V23.2397H82.6051V26.0939H87.7901V28.8807H79.1428V15.1329Z"
        fill="white"
    />
    <path
        d="M0 43.4954H2.87522L3.48053 40.7066H6.68002L7.22047 43.4954H10.7226L7.78255 29.7246H3.22111L0 43.4954ZM5.14513 32.6647H5.18836L6.20442 38.2638H3.97775L5.16675 32.6647H5.14513Z"
        fill="white"
    />
    <path
        d="M13.1005 43.4954H16.1055L17.9646 34.3509H18.0079L19.6292 43.4954H22.6126L25.6175 29.7246H22.9584L21.4235 38.2638H21.3803L19.8238 29.7246H16.7108L15.0029 38.2638H14.9597L13.6194 29.7246H10.2686L13.1438 43.4954H13.1005Z"
        fill="white"
    />
    <path
        d="M25.0986 43.4954H27.9739L28.5792 40.7066H31.7787L32.3191 43.4954H35.8429L32.9028 29.7246H28.3414L25.1203 43.4954H25.0986ZM30.2438 32.6647H30.287L31.3031 38.2638H29.0764L30.2654 32.6647H30.2438Z"
        fill="white"
    />
    <path
        d="M36.5568 43.4962H40.0373V37.5512H41.2047L42.9125 43.4962H46.3498L44.0367 36.8162C45.3986 36.319 46.3498 35.0868 46.3498 33.66C46.3498 30.9577 44.3393 29.7471 41.7235 29.7471H36.5352V43.5179L36.5568 43.4962ZM40.0373 32.2764H40.621C41.7668 32.2764 42.8909 32.3845 42.8909 33.8113C42.8909 34.9138 42.0478 35.3246 40.7291 35.3246H40.0589V32.2764H40.0373Z"
        fill="white"
    />
    <path
        d="M47.3223 43.4954H51.5162C55.7317 43.4954 57.3747 40.3175 57.3747 36.4046C57.3747 32.4917 55.3642 29.7246 51.0838 29.7246H47.3223V43.4954ZM50.8028 32.1675H51.0838C53.3754 32.1675 53.6132 34.6752 53.6132 36.2533C53.6132 38.0692 53.6132 41.0525 51.1703 41.0525H50.7812V32.1675H50.8028Z"
        fill="white"
    />
    <path
        d="M0 10.8307C0.821491 13.079 2.68066 14.3112 5.01542 14.3112C7.71769 14.3112 10.0525 12.4737 10.0525 9.64171C10.0525 5.33969 3.82642 5.77206 3.82642 3.82642C3.82642 3.02655 4.41011 2.65904 5.01542 2.65904C6.00986 2.65904 6.55031 3.37244 6.91782 4.19393L9.68495 3.02655C9.07964 1.31871 7.35018 0 5.01542 0C2.68066 0 0.605309 1.83755 0.605309 3.91289C0.605309 9.23097 6.72326 7.69607 6.72326 10.4848C6.72326 11.1334 6.09633 11.6522 5.29646 11.6522C3.95613 11.6522 3.41567 10.8307 2.91846 9.68495L0 10.8307Z"
        fill="white"
    />
    <path
        d="M13.1008 14.0304H16.1057L17.9649 4.88592H18.0081L19.6295 14.0304H22.6128L25.5961 0.28125H22.9371L21.4022 8.82043H21.3589L19.8024 0.28125H16.6894L14.9816 8.82043H14.9383L13.5764 0.28125H10.2256L13.1008 14.052V14.0304Z"
        fill="white"
    />
    <path
        d="M30.0489 0.28125H26.5684V14.052H30.0489V0.28125Z"
        fill="white"
    />
    <path
        d="M30.8271 10.8307C31.6486 13.079 33.5294 14.3112 35.8642 14.3112C38.5665 14.3112 40.8796 12.4737 40.8796 9.64171C40.8796 5.33969 34.6536 5.77206 34.6536 3.82642C34.6536 3.02655 35.2589 2.65904 35.8426 2.65904C36.837 2.65904 37.3558 3.37244 37.745 4.19393L40.5121 3.02655C39.9068 1.31871 38.1773 0 35.8642 0C33.551 0 31.4108 1.83755 31.4108 3.91289C31.4108 9.23097 37.5288 7.69607 37.5288 10.4848C37.5288 11.1334 36.9019 11.6522 36.102 11.6522C34.7617 11.6522 34.2212 10.8307 33.724 9.68495L30.8488 10.8523L30.8271 10.8307Z"
        fill="white"
    />
    <path
        d="M40.88 10.8307C41.7015 13.079 43.5607 14.3112 45.8954 14.3112C48.5977 14.3112 50.9109 12.4737 50.9109 9.64171C50.9109 5.33969 44.6848 5.77206 44.6848 3.82642C44.6848 3.02655 45.2901 2.65904 45.8738 2.65904C46.8683 2.65904 47.4087 3.37244 47.7546 4.19393L50.5217 3.02655C49.9164 1.31871 48.187 0 45.8738 0C43.5607 0 41.4205 1.83755 41.4205 3.91289C41.4205 9.23097 47.5384 7.69607 47.5384 10.4848C47.5384 11.1334 46.8899 11.6522 46.1116 11.6522C44.7713 11.6522 44.2308 10.8307 43.7336 9.68495L40.8584 10.8523L40.88 10.8307Z"
        fill="white"
    />
    <path
        d="M72.6372 40.0152C72.0752 39.8855 71.578 39.6261 71.1672 39.2586L70.9727 39.0857L71.7941 38.2642L71.9455 38.3939C72.3778 38.8046 73.1345 39.0208 73.6533 38.8695C74.1073 38.7398 74.3667 38.2642 74.1721 37.8967C74.0641 37.7021 73.7614 37.5292 72.9399 37.2697C72.0968 36.9887 71.7725 36.8158 71.5347 36.4699C71.2969 36.1672 71.2321 35.8429 71.2537 35.389C71.2753 34.935 71.4266 34.6107 71.7509 34.2864C72.5724 33.4866 74.1505 33.4866 75.1666 34.2864C75.2963 34.3945 75.4044 34.5026 75.4044 34.5242C75.4044 34.5458 75.2098 34.7404 74.9936 34.9566L74.6045 35.3673L74.4964 35.2592C74.1721 34.9566 73.5668 34.7836 73.1561 34.9134C72.7237 35.0214 72.5292 35.5187 72.7886 35.8429C72.9615 36.0375 73.1561 36.124 73.8695 36.3618C74.1938 36.4699 74.5613 36.5996 74.691 36.6644C75.0369 36.8158 75.3395 37.1184 75.5125 37.4643C75.6422 37.7237 75.6638 37.8102 75.6638 38.1993C75.6638 38.7614 75.5557 39.064 75.2098 39.4316C74.9504 39.7126 74.6477 39.9072 74.2802 40.0152C73.956 40.1233 73.0048 40.145 72.6589 40.0585L72.6372 40.0152Z"
        fill="#E75E23"
    />
    <path
        d="M87.8558 43.7337C86.429 43.3878 85.3913 42.4366 84.959 41.053C84.8509 40.7288 84.8509 40.6207 84.8292 38.2859C84.8076 35.6269 84.8076 35.6485 84.505 35.281C84.2672 34.9999 84.051 34.9135 83.5754 34.9135C83.2295 34.9135 83.143 34.9135 82.9485 35.0432C82.6674 35.2161 82.4296 35.4972 82.2999 35.8214C82.1918 36.0592 82.1918 36.1457 82.1918 38.0265V39.9721H80.8731V37.9184C80.8515 35.8863 80.8515 35.8647 80.7434 35.6269C80.6137 35.3458 80.4407 35.1729 80.2029 35.0432C80.0516 34.9567 79.9435 34.9351 79.6193 34.9351C79.2734 34.9351 79.1869 34.9351 79.014 35.0432C78.7329 35.1945 78.5816 35.3891 78.4303 35.6701C78.2357 36.0592 78.2141 36.3403 78.2141 38.221V39.9721H76.917V36.9023L76.9386 33.8542H78.1925L78.2357 34.4379L78.4086 34.2865C78.4086 34.2865 78.7545 34.0487 78.9707 33.9406C79.3166 33.7677 79.4031 33.7461 79.7922 33.7461C80.5272 33.7028 81.0677 33.9406 81.5217 34.4595L81.7378 34.7189L82.0189 34.4595C82.5161 33.9839 83.0998 33.7677 83.8348 33.7677C84.9806 33.7677 85.7156 34.3298 86.0182 35.4755C86.0831 35.735 86.0831 35.9944 86.0831 38.0049C86.0831 39.8208 86.0831 40.2964 86.1263 40.5558C86.3209 41.4205 86.9478 42.1339 87.7693 42.4366C88.2017 42.5879 88.9151 42.5879 89.3691 42.4366C89.9744 42.242 90.4716 41.788 90.7742 41.2476C91.0769 40.6855 91.0769 40.8801 91.0769 35.735V31.0654H92.374V35.8863L92.3524 40.7071L92.2443 41.053C92.0065 41.8313 91.5957 42.4798 91.012 42.9554C90.6445 43.2581 89.996 43.604 89.5636 43.7121C89.1961 43.7985 88.1584 43.8418 87.8342 43.7553L87.8558 43.7337Z"
        fill="#E75E23"
    />
    <path
        d="M87.8564 36.8802V33.832H89.1319V36.8802L89.1535 39.95H87.8564V36.8802Z"
        fill="#E75E23"
    />
    <path
        d="M88.0934 32.4702C87.6394 32.1892 87.6394 31.4974 88.0934 31.1515C88.3961 30.9354 88.9798 31.0434 89.1527 31.3461C89.3689 31.692 89.3473 32.0595 89.0446 32.3405C88.85 32.5351 88.8284 32.5351 88.5474 32.5351C88.3312 32.5351 88.2015 32.5135 88.0934 32.4486V32.4702Z"
        fill="#E75E23"
    />
    <path
        d="M96.5902 40.0366C96.3092 40.015 95.9416 39.8853 95.6174 39.7123C95.1418 39.4745 94.5148 38.826 94.2554 38.3288C93.3475 36.5561 94.169 34.5023 96.0497 33.8322C96.4389 33.7025 97.3036 33.6592 97.7576 33.7673C98.7304 34.0051 99.5303 34.7401 99.8329 35.6697C99.9843 36.1237 100.027 36.448 99.9843 36.9452L99.941 37.3343H95.1634L95.2066 37.464C95.2715 37.7234 95.4877 38.1126 95.7255 38.3504C96.5037 39.1286 97.7576 39.0854 98.6439 38.2639L98.9466 37.9829L99.3357 38.372C99.5519 38.5882 99.7248 38.7827 99.7248 38.8044C99.7248 38.8908 99.3141 39.2583 99.0114 39.4745C98.3629 39.9285 97.4117 40.1663 96.5902 40.0582V40.0366ZM98.7088 36.0805C98.5575 35.5832 98.2764 35.2374 97.8657 34.9996C97.5846 34.8482 97.563 34.8482 97.0442 34.8482C96.5686 34.8482 96.4821 34.8482 96.2443 34.9779C96.093 35.0428 95.8768 35.1941 95.7687 35.3022C95.5741 35.4968 95.2715 35.994 95.2715 36.1453C95.2715 36.2102 95.4661 36.2102 97.0226 36.2102H98.752L98.7088 36.0805Z"
        fill="#E75E23"
    />
    <path
        d="M59.2335 40.707H59.774L60.1199 42.7824L60.4658 40.707H61.0062L60.4225 43.7336H59.7956L59.2119 40.707H59.2335Z"
        fill="#E75E23"
    />
    <path
        d="M61.3301 40.707H62.6488V41.1394H61.957V41.9393H62.4975V42.3716H61.957V43.3228H62.6704V43.7552H61.3517V40.7286L61.3301 40.707Z"
        fill="#E75E23"
    />
    <path
        d="M62.9521 40.707H63.7304C64.0547 40.707 64.3141 40.7719 64.4654 40.9016C64.6384 41.0313 64.7032 41.2259 64.7032 41.5285C64.7032 41.7231 64.6816 41.8744 64.6167 42.0041C64.5519 42.1122 64.4654 42.2203 64.3141 42.2635L64.7465 43.7336H64.1195L63.7736 42.3716H63.5575V43.7336H62.9521V40.707ZM63.752 42.0041C63.9033 42.0041 63.9898 41.9609 64.0547 41.896C64.1195 41.8312 64.1411 41.7015 64.1411 41.5501C64.1411 41.3988 64.1195 41.2907 64.0763 41.2259C64.0114 41.1394 63.925 41.1178 63.7953 41.1178H63.5791V42.0041H63.7736H63.752Z"
        fill="#E75E23"
    />
    <path
        d="M65.9136 43.7769C65.6541 43.7769 65.438 43.6905 65.2866 43.5391C65.1569 43.3662 65.0704 43.15 65.0488 42.8257L65.5893 42.7393C65.5893 42.9338 65.6325 43.0635 65.6758 43.1716C65.719 43.2581 65.8055 43.3013 65.8919 43.3013C65.9784 43.3013 66.0216 43.2797 66.0433 43.2365C66.0865 43.1933 66.0865 43.1284 66.0865 43.0635C66.0865 42.9338 66.0433 42.8474 66 42.7609C65.9568 42.6744 65.8703 42.5879 65.7406 42.4799L65.4163 42.2204C65.2866 42.1123 65.2002 42.0043 65.1353 41.8745C65.0704 41.7665 65.0488 41.6151 65.0488 41.4422C65.0488 41.2044 65.1353 41.0098 65.265 40.8801C65.4163 40.7504 65.6109 40.6855 65.8703 40.6855C66.1297 40.6855 66.3243 40.772 66.4324 40.9233C66.5405 41.0747 66.6053 41.2692 66.627 41.5287L66.0865 41.6151C66.0865 41.4638 66.0649 41.3557 66.0433 41.2692C66 41.1828 65.9568 41.1395 65.8703 41.1395C65.8055 41.1395 65.7406 41.1611 65.6974 41.226C65.6541 41.2692 65.6541 41.3341 65.6541 41.4206C65.6541 41.5287 65.6541 41.5935 65.719 41.68C65.7622 41.7448 65.8271 41.8097 65.9136 41.8962L66.2162 42.1556C66.3675 42.2853 66.4756 42.415 66.5621 42.5663C66.6486 42.7177 66.6918 42.869 66.6918 43.0635C66.6918 43.2149 66.6486 43.323 66.5837 43.4527C66.5189 43.5608 66.4324 43.6472 66.3243 43.7121C66.1946 43.7769 66.0649 43.7986 65.9136 43.7986V43.7769Z"
        fill="#E75E23"
    />
    <path
        d="M67.6426 40.707H67.0156V43.7336H67.6426V40.707Z"
        fill="#E75E23"
    />
    <path
        d="M68.9401 43.7761C68.6158 43.7761 68.3996 43.6896 68.2483 43.5167C68.1186 43.3437 68.0537 43.0843 68.0537 42.7601V41.6791C68.0537 41.3333 68.1186 41.0955 68.2483 40.9225C68.378 40.7496 68.6158 40.6631 68.9401 40.6631C69.2643 40.6631 69.4589 40.7496 69.5886 40.9009C69.7183 41.0522 69.7832 41.2684 69.7832 41.5494V41.8089H69.1995V41.5278C69.1995 41.5278 69.1995 41.3765 69.1995 41.3116C69.1995 41.2684 69.1779 41.2252 69.1346 41.1819C69.0914 41.1387 69.0481 41.1171 68.9833 41.1171C68.8752 41.1171 68.7887 41.1387 68.7671 41.2252C68.7239 41.29 68.7239 41.3981 68.7239 41.5278V42.9114C68.7239 43.0627 68.7455 43.1492 68.7887 43.214C68.832 43.2789 68.8968 43.3221 69.0049 43.3221C69.113 43.3221 69.1779 43.2789 69.1995 43.214C69.2427 43.1492 69.2427 43.0411 69.2427 42.9114V42.6087H69.8264V42.8465C69.8264 43.1492 69.7615 43.3654 69.6318 43.5167C69.5021 43.668 69.2859 43.7545 68.9833 43.7545L68.9401 43.7761Z"
        fill="#E75E23"
    />
    <path
        d="M70.1719 40.707H70.7772V41.9393H71.3176V40.707H71.923V43.7336H71.3176V42.3933H70.7772V43.7336H70.1719V40.707Z"
        fill="#E75E23"
    />
    <path
        d="M72.377 40.707H73.6957V41.1394H73.0039V41.9393H73.5443V42.3716H73.0039V43.3228H73.7173V43.7552H72.3986V40.7286L72.377 40.707Z"
        fill="#E75E23"
    />
    <path
        d="M74.0206 40.707H74.7989C75.1232 40.707 75.361 40.7719 75.5339 40.9016C75.7069 41.0313 75.7717 41.2259 75.7717 41.5285C75.7717 41.7231 75.7501 41.8744 75.6852 42.0041C75.642 42.1122 75.5339 42.2203 75.4042 42.2635L75.815 43.7336H75.188L74.8421 42.3716H74.626V43.7336H73.999V40.707H74.0206ZM74.8205 42.0041C74.9718 42.0041 75.0583 41.9609 75.1232 41.896C75.188 41.8312 75.2096 41.7015 75.2096 41.5501C75.2096 41.3988 75.188 41.2907 75.1448 41.2259C75.1015 41.1394 74.9935 41.1178 74.8638 41.1178H74.6476V42.0041H74.8205Z"
        fill="#E75E23"
    />
    <path
        d="M77.0465 43.7767C76.8303 43.7767 76.6574 43.7334 76.5277 43.6686C76.398 43.5821 76.3115 43.474 76.2466 43.3443C76.2034 43.193 76.1602 43.02 76.1602 42.8039V40.7285H76.7655V42.8903C76.7655 43.0417 76.7655 43.1498 76.8087 43.2362C76.8519 43.3227 76.9168 43.3659 77.0249 43.3659C77.133 43.3659 77.2194 43.3227 77.2411 43.2362C77.2843 43.1498 77.2843 43.0417 77.2843 42.8903V40.7285H77.8896V42.8039C77.8896 43.02 77.868 43.2146 77.8248 43.3443C77.7815 43.4956 77.6734 43.6037 77.5653 43.6686C77.4356 43.7334 77.2627 43.7767 77.0249 43.7767H77.0465Z"
        fill="#E75E23"
    />
    <path
        d="M78.3652 40.707H78.7976L79.4678 42.2852V40.707H79.965V43.7336H79.5542L78.8841 42.069V43.7336H78.3652V40.707Z"
        fill="#E75E23"
    />
    <path
        d="M81.1975 43.7769C80.8948 43.7769 80.6786 43.6905 80.5705 43.4959C80.4408 43.323 80.376 43.0635 80.376 42.7177V41.7232C80.376 41.3773 80.4408 41.1179 80.5705 40.945C80.7002 40.7504 80.938 40.6855 81.2623 40.6855C81.5866 40.6855 81.8028 40.772 81.9109 40.9233C82.0406 41.0747 82.1054 41.2909 82.1054 41.5719V41.7448H81.5001V41.5287C81.5001 41.3989 81.5001 41.2909 81.4569 41.226C81.4353 41.1611 81.3704 41.1179 81.2623 41.1179C81.1542 41.1179 81.0678 41.1395 81.0461 41.226C81.0029 41.2909 81.0029 41.4206 81.0029 41.5503V42.8906C81.0029 43.0419 81.0245 43.15 81.0678 43.2149C81.111 43.2797 81.1975 43.323 81.3056 43.323C81.4137 43.323 81.4785 43.2797 81.5217 43.2149C81.565 43.1284 81.5866 43.0203 81.5866 42.869V42.5447H81.2839V42.1772H82.1271V43.7337H81.7163L81.6731 43.4743C81.5866 43.6905 81.4136 43.7986 81.1758 43.7986L81.1975 43.7769Z"
        fill="#E75E23"
    />
    </svg>