<svg
    viewBox="0 0 445 196"
    fill="none"
    xmlns="http://www.w3.org/2000/svg"
>
    <path
        d="M155.862 25.2998C156.362 25.7998 159.462 28.4998 164.162 28.4998C168.762 28.4998 172.562 25.4998 172.562 21.3998C172.562 16.8998 169.162 14.8998 163.862 12.6998C160.562 11.2998 158.562 9.79981 158.562 7.19981C158.562 5.59981 159.762 2.8998 163.962 2.8998C166.362 2.8998 168.862 4.49981 169.062 4.69981C169.662 5.09981 170.062 4.8998 170.462 4.2998C170.662 4.0998 170.762 3.79981 170.962 3.59981C171.462 2.89981 170.962 2.3998 170.762 2.2998C170.762 2.2998 167.862 0.299805 164.062 0.299805C157.862 0.299805 155.762 4.5998 155.762 7.2998C155.762 11.7998 158.362 13.4998 162.662 15.3998C167.162 17.2998 169.562 18.8998 169.562 21.5998C169.562 23.8998 167.462 25.8998 164.362 25.8998C160.862 25.8998 158.062 23.1998 157.762 22.8998C157.262 22.3998 156.762 22.6998 156.362 23.2998C156.162 23.4998 155.962 23.7998 155.762 23.9998C155.162 24.6998 155.562 24.9998 155.862 25.2998Z"
        fill="#BFFF7D"
    />
    <path
        d="M198.962 6.80019L205.762 27.9002C205.862 28.1002 206.162 28.3002 206.462 28.3002H207.062C207.362 28.3002 207.662 28.1002 207.762 27.8002L215.062 1.50019C215.262 1.00019 214.862 0.600197 214.362 0.600197H212.762C212.462 0.600197 212.162 0.900197 212.062 1.1002L206.762 21.4002H206.562L199.862 0.600197C199.762 0.400197 199.462 0.200195 199.162 0.200195H198.462C198.062 0.200195 197.862 0.400197 197.762 0.600197L191.262 21.4002H191.062L185.562 1.2002C185.462 0.900195 185.162 0.700195 184.862 0.700195H183.262C182.762 0.700195 182.362 1.1002 182.562 1.6002L189.962 27.9002C190.062 28.2002 190.362 28.4002 190.662 28.4002H191.262C191.562 28.4002 191.762 28.2002 191.962 28.0002L198.762 6.80019H198.962Z"
        fill="#BFFF7D"
    />
    <path
        d="M228.262 27.8996H229.862C230.262 27.8996 230.562 27.4996 230.562 27.1996L230.462 1.29961C230.462 0.899606 230.062 0.599609 229.762 0.599609H228.162C227.762 0.599609 227.462 0.999606 227.462 1.29961L227.562 27.1996C227.462 27.5996 227.862 27.8996 228.262 27.8996Z"
        fill="#BFFF7D"
    />
    <path
        d="M260.762 21.1996C260.762 16.6996 257.362 14.6996 252.062 12.4996C248.762 11.0996 246.762 9.5996 246.762 6.9996C246.762 5.3996 247.962 2.69961 252.162 2.69961C254.562 2.69961 257.062 4.2996 257.262 4.4996C257.862 4.8996 258.262 4.69961 258.662 4.09961C258.862 3.89961 258.962 3.5996 259.162 3.3996C259.662 2.6996 259.162 2.19961 258.962 2.09961C258.962 2.09961 256.062 0.0996094 252.262 0.0996094C246.062 0.0996094 243.962 4.39961 243.962 7.09961C243.962 11.5996 246.562 13.2996 250.862 15.1996C255.362 17.0996 257.762 18.6996 257.762 21.3996C257.762 23.6996 255.662 25.6996 252.562 25.6996C249.062 25.6996 246.262 22.9996 245.962 22.6996C245.462 22.1996 244.962 22.4996 244.562 23.0996C244.362 23.2996 244.162 23.5996 243.962 23.7996C243.462 24.4996 243.862 24.8996 244.162 25.0996C244.662 25.5996 247.762 28.2996 252.462 28.2996C256.862 28.1996 260.762 25.2996 260.762 21.1996Z"
        fill="#BFFF7D"
    />
    <path
        d="M271.962 25C272.462 25.5 275.562 28.2 280.262 28.2C284.862 28.2 288.662 25.2 288.662 21.1C288.662 16.6 285.262 14.6 279.962 12.4C276.662 11 274.662 9.5 274.662 6.9C274.662 5.3 275.862 2.60001 280.062 2.60001C282.462 2.60001 284.962 4.2 285.162 4.4C285.762 4.8 286.162 4.6 286.562 4C286.762 3.8 286.862 3.5 287.062 3.3C287.562 2.6 287.062 2.1 286.862 2C286.862 2 283.962 0 280.162 0C273.962 0 271.862 4.3 271.862 7C271.862 11.5 274.462 13.2 278.762 15.1C283.262 17 285.662 18.6 285.662 21.3C285.662 23.6 283.562 25.6 280.462 25.6C276.962 25.6 274.162 22.9 273.862 22.6C273.362 22.1 272.862 22.4 272.462 23C272.262 23.2 272.062 23.5 271.862 23.7C271.162 24.5 271.562 24.8 271.962 25Z"
        fill="#BFFF7D"
    />
    <path
        d="M45.5617 112.2C53.2617 112.2 60.6617 109.5 66.5617 103.8C67.1617 103.2 67.3617 102.1 66.6617 101.5L61.2617 95.9996C60.7617 95.4996 59.7617 95.3996 59.0617 95.9996C55.4617 98.8996 51.0617 100.9 45.8617 101C34.7617 101 26.4617 91.8996 26.4617 81.0996C26.4617 70.1996 34.6617 60.8996 45.6617 60.8996C50.4617 60.8996 55.3617 62.7996 58.9617 65.9996C59.6617 66.6996 60.5617 66.6996 61.1617 65.9996L66.4617 60.4996C67.1617 59.7996 67.1617 58.7996 66.3617 58.0996C60.4617 52.7996 54.1617 50.0996 45.4617 50.0996C28.1617 50.0996 14.2617 64.0996 14.2617 81.3996C14.2617 98.4996 28.2617 112.3 45.5617 112.2Z"
        fill="#BFFF7D"
    />
    <path
        d="M127.363 108.7L115.462 86.8002C122.962 83.8002 128.262 77.3002 128.262 69.3002C128.262 59.0002 119.763 50.7002 109.363 50.7002H84.6625C83.6625 50.7002 83.0625 51.5002 83.0625 52.3002L83.1625 109.5C83.1625 110.4 83.8625 111.1 84.7625 111.1H92.7625C93.6625 111.1 94.3625 110.3 94.3625 109.5V87.4002H103.962L115.462 110.3C115.662 110.6 116.063 111.1 116.863 111.1H125.962C127.362 111.2 127.963 109.8 127.363 108.7ZM108.462 78.3002H94.3625V61.1002H108.462C113.062 61.1002 117.062 64.9002 117.062 69.5002C116.962 74.3002 112.962 78.3002 108.462 78.3002Z"
        fill="#BFFF7D"
    />
    <path
        d="M182.662 100.7L157.062 100.8V85.7002H178.462C179.362 85.7002 180.062 85.0002 180.062 84.1002V76.9002C180.062 76.0002 179.262 75.3002 178.462 75.3002H157.062V61.1002L182.662 61.0002C183.662 61.0002 184.262 60.2002 184.262 59.4002V52.3002C184.262 51.4002 183.562 50.7002 182.662 50.7002L147.462 50.8002C146.462 50.8002 145.862 51.6002 145.862 52.4002L145.962 109.6C145.962 110.5 146.662 111.2 147.562 111.2L182.762 111.1C183.762 111.1 184.362 110.3 184.362 109.5V102.4C184.262 101.5 183.562 100.7 182.662 100.7Z"
        fill="#BFFF7D"
    />
    <path
        d="M224.562 50.6004C224.262 50.1004 223.962 49.6004 223.062 49.7004H222.162C221.362 49.7004 220.962 50.1004 220.662 50.7004L193.962 108.8C193.462 109.9 194.162 111 195.462 111H202.962C204.362 111 205.162 110.1 205.462 109.3L209.662 100L235.562 99.9004L239.862 109.2C240.462 110.4 241.062 110.9 242.362 110.9H249.862C251.162 110.9 251.862 109.8 251.362 108.6L224.562 50.6004ZM213.962 90.4004L222.362 71.4004H222.662L231.362 90.4004H213.962Z"
        fill="#BFFF7D"
    />
    <path
        d="M30.8622 134.1C30.5622 133.6 30.2622 133.1 29.3622 133.2H28.4621C27.6621 133.2 27.2621 133.6 26.9621 134.2L0.16215 192.4C-0.33785 193.5 0.36215 194.6 1.66215 194.6H9.16215C10.5621 194.6 11.3621 193.7 11.6621 192.9L15.8622 183.6L41.7621 183.5L46.0622 192.8C46.6622 194 47.2622 194.5 48.5622 194.5H56.0622C57.3622 194.5 58.0622 193.4 57.5622 192.2L30.8622 134.1ZM20.2621 173.9L28.6621 154.9H28.9621L37.6621 173.9H20.2621Z"
        fill="#BFFF7D"
    />
    <path
        d="M112.762 178.9C112.262 178.4 111.262 178.3 110.562 178.9C106.962 181.8 102.562 183.8 97.3617 183.9C86.2617 183.9 77.9617 174.8 77.9617 164C77.9617 153.1 86.1617 143.8 97.1617 143.8C101.962 143.8 106.862 145.7 110.462 148.9C111.162 149.6 112.062 149.6 112.662 148.9L117.962 143.4C118.662 142.7 118.662 141.7 117.862 141C111.962 135.7 105.662 133 96.9617 133C79.6617 133 65.7617 147 65.7617 164.3C65.7617 181.6 79.7617 195.3 97.0617 195.3C104.762 195.3 112.162 192.6 118.062 186.9C118.662 186.3 118.862 185.2 118.162 184.6L112.762 178.9Z"
        fill="#BFFF7D"
    />
    <path
        d="M157.262 133.8C156.962 133.3 156.662 132.8 155.762 132.9H154.862C154.062 132.9 153.662 133.3 153.362 133.9L126.762 192.1C126.262 193.2 126.962 194.3 128.262 194.3H135.762C137.162 194.3 137.962 193.4 138.262 192.6L142.462 183.3L168.362 183.2L172.662 192.5C173.262 193.7 173.862 194.2 175.162 194.2H182.662C183.962 194.2 184.662 193.1 184.162 191.9L157.262 133.8ZM146.662 173.6L155.062 154.6H155.362L164.062 173.6H146.662Z"
        fill="#BFFF7D"
    />
    <path
        d="M219.062 133.6H198.562C197.662 133.6 196.962 134.4 196.962 135.2L197.062 192.4C197.062 193.3 197.762 194 198.662 194H219.162C235.862 194 249.462 180.4 249.462 163.6C249.462 147.1 235.762 133.6 219.062 133.6ZM218.062 183.6H208.162L208.062 144.1H217.962C229.162 144.1 237.462 152.5 237.462 163.8C237.562 175.1 229.362 183.6 218.062 183.6Z"
        fill="#BFFF7D"
    />
    <path
        d="M302.962 183.6L277.362 183.7V168.6H298.762C299.662 168.6 300.362 167.9 300.362 167V159.8C300.362 158.9 299.562 158.2 298.762 158.2H277.362V144L302.962 143.9C303.962 143.9 304.562 143.1 304.562 142.3V135.2C304.562 134.3 303.862 133.6 302.962 133.6L267.762 133.7C266.762 133.7 266.162 134.5 266.162 135.3L266.262 192.5C266.262 193.4 266.962 194.1 267.862 194.1L303.062 194C304.062 194 304.662 193.2 304.662 192.4V185.3C304.562 184.4 303.862 183.6 302.962 183.6Z"
        fill="#BFFF7D"
    />
    <path
        d="M442.862 133.1H433.962C433.262 133.1 432.862 133.5 432.562 133.9L418.762 153.9L404.862 134C404.562 133.7 404.162 133.2 403.462 133.2H394.662C393.262 133.2 392.562 134.6 393.262 135.7L413.062 164.5L413.162 192C413.162 192.9 413.862 193.6 414.762 193.6H422.762C423.662 193.6 424.362 192.8 424.362 192L424.262 164.4L444.162 135.6C444.962 134.5 444.262 133.1 442.862 133.1Z"
        fill="#BFFF7D"
    />
    <path
        d="M318.362 51.2002V108.8L360.462 82.4002L318.362 51.2002Z"
        fill="#BFFF7D"
    />
    <path
        d="M375.462 133.7C375.362 133 374.862 132.4 373.862 132.4H372.462C371.662 132.4 371.262 132.7 370.962 133.3L352.062 174.2C351.962 174.2 351.962 174.2 351.762 174.2L335.562 139.6C356.362 139 374.562 127.5 384.562 110.7C384.762 110.8 384.862 110.8 385.062 110.8H393.062C393.962 110.8 394.662 110 394.662 109.2V87.1004H404.262L415.762 110C415.962 110.3 416.362 110.8 417.162 110.8H426.262C427.762 110.8 428.362 109.4 427.762 108.3L415.862 86.4004C423.362 83.4004 428.662 76.9004 428.662 68.9004C428.662 58.6004 420.162 50.3004 409.762 50.3004H385.062C384.762 50.3004 384.462 50.4004 384.262 50.6004C373.962 33.7004 355.362 22.4004 334.062 22.4004C312.862 22.4004 294.262 33.7004 283.962 50.6004L256.062 50.7004C255.062 50.7004 254.462 51.5004 254.462 52.3004V59.4004C254.462 60.3004 255.162 61.0004 256.062 61.0004H269.262L269.362 109.5C269.362 110.4 270.162 111.1 270.962 111.1H278.962C279.862 111.1 280.562 110.3 280.562 109.5V105.5C288.962 123.8 306.462 137.1 327.362 139.4L318.162 192.2C317.962 193.4 318.662 194.2 319.762 194.2H327.562C328.362 194.2 329.062 193.5 329.162 192.9L334.062 160.1C334.162 160.1 334.362 160.1 334.362 160.1L349.762 194.1C350.062 194.6 350.462 195.1 351.262 195H352.862C353.662 195 354.162 194.6 354.362 194L369.462 160C369.462 160 369.662 160 369.762 160L374.962 192.8C375.162 193.4 375.862 194.1 376.562 194.1H384.462C385.562 194.1 386.262 193.3 386.062 192.1L375.462 133.7ZM408.762 60.5004C413.362 60.5004 417.362 64.3004 417.362 68.9004C417.362 73.7004 413.362 77.7004 408.862 77.7004H394.762V60.5004H408.762ZM280.662 96.7004L280.562 65.3004C281.062 63.8004 281.562 62.2004 282.062 60.8004H293.762C294.762 60.8004 295.362 60.0004 295.362 59.2004V52.1004C295.362 51.2004 294.662 50.5004 293.762 50.5004H287.462C297.462 35.4004 314.562 25.3004 334.062 25.3004C355.462 25.3004 374.062 37.5004 383.362 55.2004L383.462 106.5C374.262 124.3 355.662 136.5 334.262 136.6C334.162 136.6 334.062 136.6 334.062 136.6C333.062 136.6 332.062 136.6 330.962 136.5C330.962 136.5 330.962 136.5 330.862 136.5C329.862 136.4 328.862 136.4 327.862 136.3C305.462 133.8 286.862 117.8 280.662 96.7004Z"
        fill="#BFFF7D"
    />
</svg>